<svg xmlns="http://www.w3.org/2000/svg" viewBox="0 0 24 24"><defs><style>.cls-1{fill:none;stroke:#09759d;stroke-linecap:round;stroke-linejoin:round;}</style></defs><g id="Layer_2" data-name="Layer 2"><g id="Outline_Icons" data-name="Outline Icons"><path class="cls-1" d="M16.42,19.25l2.3,2.3,2.83-2.83-2.3-2.3a11.85,11.85,0,0,0,1-2.92H23.5v-3H20.25a11.85,11.85,0,0,0-1-2.92l2.3-2.3L18.72,2.45l-2.3,2.3a11.85,11.85,0,0,0-2.92-1V.5h-3V3.75a11.85,11.85,0,0,0-2.92,1l-2.3-2.3L2.45,5.28l2.3,2.3a11.85,11.85,0,0,0-1,2.92H.5v3H3.75a11.85,11.85,0,0,0,1,2.92l-2.3,2.3,2.83,2.83,2.3-2.3"/><line class="cls-1" x1="10.5" y1="20.5" x2="13.5" y2="20.5"/><line class="cls-1" x1="10.5" y1="22.5" x2="13.5" y2="22.5"/><line class="cls-1" x1="12" y1="22.5" x2="12" y2="23.5"/><path class="cls-1" d="M17.87,12A5.71,5.71,0,0,0,12,6.5,5.71,5.71,0,0,0,6.13,12a5.73,5.73,0,0,0,4.37,5.33V18.5h3V17.37A5.73,5.73,0,0,0,17.87,12Z"/></g></g></svg>