<svg xmlns="http://www.w3.org/2000/svg" width="24" height="24.003" viewBox="0 0 24 24.003">
  <g id="Group_416" data-name="Group 416" transform="translate(-385 -2832.997)">
    <path id="Path_487" data-name="Path 487" d="M397,2856.5h11.5a10.135,10.135,0,0,0-1-4.057c-.746-1.492-4-2.5-8-4v-3a3.75,3.75,0,0,0,1.5-3c.5,0,1-2,0-2.5,0-.3,1.339-2.8,1-4.5-.5-2.5-7.5-2.5-8-.5-3,0-1,4.594-1,5-1,.5-.5,2.5,0,2.5a3.75,3.75,0,0,0,1.5,3v3c-4,1.5-7.255,2.508-8,4a10.135,10.135,0,0,0-1,4.057Z" fill="none" stroke="#09759d" stroke-linejoin="round" stroke-width="1"/>
  </g>
</svg>
